<svg xmlns="http://www.w3.org/2000/svg" viewBox="0 0 64 64" xml:space="preserve" style="fill-rule:evenodd;clip-rule:evenodd;stroke-linecap:round;stroke-linejoin:round;stroke-miterlimit:2"><path d="M44.075 16.488A2.023 2.023 0 0 0 42.124 15H21.876c-.911 0-1.71.609-1.951 1.488L15.667 32h32.666l-4.258-15.512zM52.907 38a6.59 6.59 0 0 0-.379-1.346l-1.353-3.382A2.023 2.023 0 0 0 49.297 32H14.703c-.827 0-1.571.504-1.878 1.272l-1.353 3.382A6.586 6.586 0 0 0 11 39.103v4.873c0 1.118.906 2.024 2.024 2.024H36" style="fill:none;stroke:#222a33;stroke-width:2px"/><path d="M11.583 37.583h4.323c.926 0 1.772.523 2.186 1.351l1.075 2.149M16 30.583s-1.691-3.5-3.833-3.5M48.333 30.583s1.691-3.5 3.834-3.5M21.5 46.5h-7v3.68A1.824 1.824 0 0 0 16.32 52h3.36a1.824 1.824 0 0 0 1.82-1.82V46.5zM56 41a3 3 0 0 0-3-3H43a3 3 0 0 0-3 3v7.051a7.5 7.5 0 0 0 4.425 6.841L48 56.5l3.575-1.608A7.5 7.5 0 0 0 56 48.051V41z" style="fill:none;stroke:#222a33;stroke-width:2px"/><path d="m44.75 46.748 2.5 2 4-3.5" style="fill:none;stroke:#222a33;stroke-width:2px"/></svg>