<svg xmlns="http://www.w3.org/2000/svg" xml:space="preserve" width="2048" height="2048" style="shape-rendering:geometricPrecision;text-rendering:geometricPrecision;image-rendering:optimizeQuality;fill-rule:evenodd;clip-rule:evenodd"><defs><style>.fil0{fill:#424242}</style></defs><g id="Layer_x0020_1"><g id="_283789416"><path id="_283795912" class="fil0" d="M968.229 548.666c267.077 0 483.585 216.508 483.585 483.585 0 267.076-216.508 483.585-483.585 483.585-267.076 0-483.585-216.509-483.585-483.585 0-267.077 216.509-483.585 483.585-483.585zm0 219.81c145.678 0 263.775 118.096 263.775 263.775 0 145.678-118.096 263.775-263.775 263.775-145.678 0-263.775-118.096-263.775-263.775 0-145.678 118.096-263.775 263.775-263.775z"/><circle id="_283795856" class="fil0" cx="968.23" cy="1032.25" r="225.673"/><path id="_283793336" class="fil0" d="M1629.13 451.904c89.953 0 162.874 136.944 162.874 262.67 0 214.882-325.748 214.882-325.748 0 0-125.726 72.92-262.67 162.874-262.67z"/><path id="_283792552" class="fil0" d="M1686.72 1548.1c0 26.395-25.918 47.996-57.598 47.996-31.677 0-57.595-21.598-57.595-47.996 0-297.127 34.553-485.496 34.553-773.76h46.087c0 288.264 34.553 476.633 34.553 773.76z"/><path id="_283791488" class="fil0" d="M397.168 1548.1c0 26.395-25.918 47.996-57.596 47.996-31.678 0-57.596-21.598-57.596-47.996 0-297.127 34.553-485.496 34.553-773.76h46.086c0 288.264 34.553 476.633 34.553 773.76z"/><path id="_283789360" class="fil0" d="M284.979 451.904c-66.66 283.31-5.56 431.139 55.146 430.283 60.335-.85 120.298-148.69 54.041-430.283l-6.045 283.902h-16.216l-16.17-279.538-9.67 279.538H333.08l-9.671-279.538-15.815 279.538h-16.571l-6.045-283.902z"/></g></g><path style="fill:none" d="M0 0h2048v2048H0z"/></svg>