<svg xmlns="http://www.w3.org/2000/svg" viewBox="0 0 48 48"><g data-name="Laundry a shirt"><path d="M5.55 4.17A1 1 0 1 0 5.19 6a1 1 0 0 0 .36-1.83zM8.29 4.29a1 1 0 0 0 1.42 1.42 1 1 0 0 0-1.42-1.42zM12.62 4.08a1 1 0 1 0 1.09.21 1 1 0 0 0-1.09-.21zM33 4H23a1 1 0 0 0 0 2h10a1 1 0 0 0 0-2z"/><path d="M47.22 35A3 3 0 0 0 45 30h-7V4a4 4 0 0 0-4-4H4a4 4 0 0 0-4 4v36a4 4 0 0 0 4 4h18.1a5 5 0 0 0 4.9 4h18a3 3 0 0 0 2.22-5 3 3 0 0 0 0-4 3 3 0 0 0 0-4zM45 34H27a1 1 0 0 0 0 2h18a1 1 0 0 1 0 2H27a3 3 0 0 1 0-6h18a1 1 0 0 1 0 2zm-15.77-4h-2.18a9 9 0 1 0-5 4.45 3.93 3.93 0 0 0 .2 2.06 11 11 0 1 1 7-6.51zM12 25.4c1.42-.27 1.59-.9 3-.9 1.59 0 1.82 1 4 1s2.39-1 4-1c1.36 0 1.55.63 3 .9a7 7 0 1 1-14 0zm.63-2.35a7 7 0 0 1 12.68 0 5.17 5.17 0 0 0-4.78.05 3.17 3.17 0 0 1-3.1 0 5.19 5.19 0 0 0-4.77-.05zM2 4a2 2 0 0 1 2-2h30a2 2 0 0 1 2 2v4H2zm0 36V10h34v20h-4.63a13 13 0 1 0-8.12 8.27A4.89 4.89 0 0 0 24 39a5 5 0 0 0-1.93 3H4a2 2 0 0 1-2-2zm43 6H27a3 3 0 0 1 0-6h18a1 1 0 0 1 0 2H27a1 1 0 0 0 0 2h18a1 1 0 0 1 0 2z"/></g></svg>