<svg xmlns="http://www.w3.org/2000/svg" width="128" height="128" xml:space="preserve"><path fill="#282D33" d="M26.497 110.031h17.569v4H26.497zM31.564 121.193h17.57v4h-17.57zM14.574 110.031h6.902v4h-6.902zM81.566 121.197h17.57v4h-17.57zM104.158 121.197h6.9v4h-6.9zM113.426 94.884H17.92V0h95.505v94.884zm-91.506-4h87.505V4H21.92v86.884zM57.436 100.766h4V128h-4zM69.914 100.766h4V128h-4z"/><path fill="#282D33" d="M102.063 83.598H29.285V11.286h72.778v72.312zm-68.778-4h64.778V15.286H33.285v64.312z"/><g><path fill="#282D33" d="M70.83 53.957H52.759v-4H70.83c4 0 7.256-3.226 7.256-7.192v-9.194c0-3.966-3.256-7.192-7.256-7.192H52.759v-4H70.83c6.207 0 11.256 5.021 11.256 11.192v9.194c0 6.172-5.049 11.192-11.256 11.192z"/><path fill="#282D33" d="M50.318 21.739h4v51.229h-4z"/></g></svg>