<svg xmlns="http://www.w3.org/2000/svg" viewBox="0 0 64 64"><g data-name="Swimming Pool"><path d="M63 45.14a8.784 8.784 0 0 0-5.753 2.048 7.125 7.125 0 0 1-9.17 0 9.099 9.099 0 0 0-11.503 0 7.116 7.116 0 0 1-9.163 0 8.781 8.781 0 0 0-5.752-2.048 8.777 8.777 0 0 0-5.75 2.048 6.82 6.82 0 0 1-4.58 1.672 6.818 6.818 0 0 1-4.58-1.671A8.773 8.773 0 0 0 1 45.14a1 1 0 0 0-1 1v12a1 1 0 0 0 1 1 6.818 6.818 0 0 1 4.58 1.671 8.773 8.773 0 0 0 5.748 2.049 8.776 8.776 0 0 0 5.75-2.048 7.116 7.116 0 0 1 9.164 0 9.097 9.097 0 0 0 11.501 0 7.119 7.119 0 0 1 9.166 0 9.103 9.103 0 0 0 11.506 0A6.83 6.83 0 0 1 63 59.14a1 1 0 0 0 1-1v-12a1 1 0 0 0-1-1z" style="fill:#1b1b1e"/><path d="M50 46.09V3.5a3.5 3.5 0 0 0-7 0v39.66a10.773 10.773 0 0 1 6.25 2.41c.27.19.52.37.75.52zM21 43.16V3.5a3.5 3.5 0 0 0-7 0v42.58c.23-.15.47-.32.74-.51A10.748 10.748 0 0 1 21 43.16zM63 5H52v6h11a1.003 1.003 0 0 0 1-1V6a1.003 1.003 0 0 0-1-1zM1 11h11V5H1a1.003 1.003 0 0 0-1 1v4a1.003 1.003 0 0 0 1 1zM23 5h18v6H23zM23 15h18v6H23zM23 25h18v6H23zM23 35h18v6H23z" style="fill:#1b1b1e"/></g></svg>