<svg xmlns="http://www.w3.org/2000/svg" width="128" height="128" xml:space="preserve"><path fill="#282D33" d="M116.646 56.252H11.351l.097-2.088C12.735 26.307 35.819 4.485 64 4.485c28.18 0 51.264 21.821 52.551 49.678l.095 2.089zM15.578 52.26h96.842C110.209 27.544 89.334 8.478 64 8.478c-25.335 0-46.21 19.066-48.422 43.782z"/><path fill="#282D33" d="M99.604 48.64c-2.107-9.755-7.57-18.675-15.389-25.116l2.541-3.081c8.504 7.01 14.455 16.724 16.75 27.354l-3.902.843zM117.174 66.565H10.821c-2.451 0-4.163-2.883-4.163-7.01 0-4.139 1.712-7.029 4.163-7.029h106.353c2.455 0 4.168 2.89 4.168 7.029 0 4.128-1.713 7.01-4.168 7.01zM11.25 62.573h105.492c.236-.416.607-1.449.607-3.017 0-1.586-.369-2.623-.604-3.037h-105.5c-.232.413-.596 1.449-.596 3.037.001 1.57.367 2.602.601 3.017z"/><path fill="#282D33" d="M35.502 113.492c-.292-.399-7.081-9.89-2.079-21.773 2.37-5.628.836-19.486-.09-23.938l-.676-.526-.005-.984c0-.526 0-1.922 1.321-2.467l1.236-.509.686.67c1.95-.397 5.143-.718 7.808 1.1 2.079 1.417 3.345 3.796 3.764 7.072 1.277 9.956 3.871 13.198 5.823 14.163 1.682.832 3.931.45 6.684-1.141l1.997 3.456c-3.982 2.301-7.499 2.726-10.453 1.264-4.167-2.064-6.788-7.7-8.011-17.235-.268-2.096-.959-3.534-2.053-4.28-1.189-.812-2.818-.786-4.104-.599 1.304 6.407 2.223 19.635-.248 25.504-4.135 9.821 1.563 17.785 1.621 17.864l-3.221 2.359zM58.107 127.758h-3.993v-8.283l46.43-51.514c-1.732-.606-4.613-.723-8.172 2.526-7.879 7.197-20.441 19.926-20.566 20.054l-2.842-2.803c.127-.129 12.762-12.931 20.717-20.198 6.768-6.184 12.99-3.694 15.336-1.513l1.439 1.337-48.35 53.645v6.749z"/><path fill="#282D33" d="m33.728 128-3.704-1.491 6.061-15.05c.334-.957 3.969-10.812 14.163-17.539 9.797-6.467 12.292-13.561 13.371-19.019 1.577-7.985 3.221-10.281 11.784-11.226l2.814-.311-7.74 32.64-3.885-.922 6.414-27.043c-3.959.749-4.393 2.176-5.471 7.636-1.229 6.221-4.056 14.296-15.088 21.576-9.309 6.146-12.568 15.453-12.601 15.545l-.039.105L33.728 128zM62.004 0h3.992v6.481h-3.992z"/></svg>