<svg xmlns="http://www.w3.org/2000/svg" width="128" height="128" xml:space="preserve"><path fill="#282D33" d="m38.763 69.334-3.974-.447c1.983-17.626 10.157-33.456 22.425-43.432L64 19.935l6.788 5.521C82.94 35.339 91.096 51.01 93.162 68.45l-3.973.471c-1.944-16.417-9.572-31.129-20.925-40.361L64 25.09l-4.263 3.468c-11.462 9.321-19.106 24.183-20.974 40.776z"/><path fill="#282D33" d="M58.368 122.712h-.001c-14.383-.001-29.145-6.577-40.499-18.044C5.154 91.829-1.427 74.716.261 58.889l.171-1.601 1.602-.175a45.276 45.276 0 0 1 4.869-.261c14.381 0 29.143 6.577 40.501 18.046 12.713 12.834 19.293 29.947 17.604 45.776l-.171 1.602-1.601.174a45.27 45.27 0 0 1-4.868.262zM4.097 60.946C3.14 75.13 9.273 90.304 20.71 101.854c10.608 10.714 24.334 16.858 37.657 16.859h.001c.938 0 1.877-.032 2.805-.095.957-14.187-5.175-29.36-16.61-40.906-10.612-10.715-24.339-16.86-37.66-16.86-.939 0-1.878.032-2.806.094z"/><path fill="#282D33" d="M69.635 122.711h-.002c-1.638 0-3.275-.088-4.867-.261l-1.601-.174-.171-1.602c-1.688-15.823 4.893-32.936 17.604-45.776 11.359-11.469 26.12-18.046 40.501-18.046 1.637 0 3.274.088 4.868.261l1.601.175.171 1.601c1.69 15.827-4.892 32.94-17.605 45.777-11.353 11.469-26.114 18.045-40.499 18.045zm-2.806-4.093c.927.063 1.865.094 2.804.094 13.325.001 27.052-6.145 37.658-16.86 11.438-11.548 17.569-26.721 16.612-40.905a41.468 41.468 0 0 0-2.805-.095c-13.32 0-27.046 6.146-37.659 16.86-11.433 11.552-17.566 26.725-16.61 40.906z"/><path fill="#282D33" d="M63.575 122.504c-15.1-4.617-28.136-17.425-34.872-34.26-6.734-16.83-6.169-35.178 1.51-49.08l.784-1.42 1.551.475c15.099 4.616 28.134 17.423 34.869 34.258 2.576 6.435 4.105 13.099 4.546 19.805l-3.992.262c-.412-6.285-1.848-12.537-4.267-18.58-6.053-15.131-17.472-26.751-30.758-31.405-6.364 12.678-6.587 29.061-.529 44.2 6.29 15.721 18.375 27.655 32.327 31.923l-1.169 3.822z"/><path fill="#282D33" d="m64.428 122.504-1.17-3.823c13.951-4.268 26.037-16.202 32.328-31.923 6.056-15.137 5.832-31.52-.53-44.2-13.285 4.654-24.705 16.274-30.758 31.405-2.475 6.188-3.92 12.58-4.293 19.001l-3.993-.232c.398-6.852 1.937-13.666 4.572-20.255 6.736-16.836 19.771-29.643 34.87-34.258l1.552-.475.784 1.42c7.678 13.905 8.242 32.253 1.509 49.08-6.736 16.834-19.773 29.643-34.871 34.26z"/><g><path fill="#282D33" d="M14.196 59.59h-4c0-.684.013-1.363.038-2.04l3.997.146a51.729 51.729 0 0 0-.035 1.894zM113.666 55.82a50.294 50.294 0 0 0-.362-3.39l3.961-.559c.17 1.205.302 2.436.392 3.656l-3.991.293zm-99.162-1.861-3.975-.438c.149-1.354.352-2.72.602-4.058l3.931.734a51.746 51.746 0 0 0-.558 3.762zm98.127-5.271a50.908 50.908 0 0 0-.951-3.681l3.832-1.146c.389 1.3.734 2.637 1.027 3.972l-3.908.855zm-96.73-2.198-3.865-1.029a54.25 54.25 0 0 1 1.205-3.923l3.776 1.317a51.11 51.11 0 0 0-1.116 3.635zm94.552-5.08a49.911 49.911 0 0 0-1.494-3.492l3.615-1.711a54.12 54.12 0 0 1 1.613 3.77l-3.734 1.433zm-92.047-2.096-3.666-1.601a54.41 54.41 0 0 1 1.784-3.698l3.535 1.871a51.412 51.412 0 0 0-1.653 3.428zm88.798-4.765a50.106 50.106 0 0 0-2.004-3.23l3.318-2.234a54.992 54.992 0 0 1 2.162 3.485l-3.476 1.979zm-85.239-1.952-3.384-2.134a55.41 55.41 0 0 1 2.32-3.388l3.212 2.383a50.735 50.735 0 0 0-2.148 3.139zm80.995-4.349a50.791 50.791 0 0 0-2.467-2.893l2.943-2.708a54.305 54.305 0 0 1 2.662 3.122l-3.138 2.479zm-76.468-1.757-3.024-2.617a55.033 55.033 0 0 1 2.802-3l2.818 2.838a51.136 51.136 0 0 0-2.596 2.779zm71.323-3.835a50.629 50.629 0 0 0-2.873-2.489l2.502-3.12a54.926 54.926 0 0 1 3.103 2.688l-2.732 2.921zm-65.93-1.519-2.596-3.043a54.744 54.744 0 0 1 3.222-2.544l2.357 3.231a50.382 50.382 0 0 0-2.983 2.356zm60.005-3.234a49.807 49.807 0 0 0-3.218-2.025l2-3.464a53.818 53.818 0 0 1 3.476 2.188l-2.258 3.301zM38.02 16.66l-2.105-3.401a53.546 53.546 0 0 1 3.571-2.024l1.839 3.552a49.238 49.238 0 0 0-3.305 1.873zm47.289-2.555a49.068 49.068 0 0 0-3.487-1.508l1.443-3.73a52.694 52.694 0 0 1 3.772 1.632l-1.728 3.606zm-40.548-.932-1.56-3.684a53.522 53.522 0 0 1 3.837-1.453l1.272 3.792a49.2 49.2 0 0 0-3.549 1.345zm33.466-1.81a48.924 48.924 0 0 0-3.676-.951l.852-3.908a53.57 53.57 0 0 1 3.977 1.029l-1.153 3.83zm-26.273-.6-.973-3.88A53.768 53.768 0 0 1 55 6.038l.672 3.943a49.952 49.952 0 0 0-3.718.782zM70.81 9.748a49.368 49.368 0 0 0-3.779-.374l.242-3.993c1.364.082 2.739.219 4.086.405l-.549 3.962zM59.437 9.49l-.366-3.983a53.825 53.825 0 0 1 4.1-.219l.061 4a49.933 49.933 0 0 0-3.795.202zM117.803 59.59h-4c0-.635-.012-1.267-.034-1.896l3.998-.144c.024.678.036 1.357.036 2.04z"/></g></svg>